<svg viewBox="0 -.904 20.468 20.468" xmlns="http://www.w3.org/2000/svg"><path opacity="0" d="M0 0h20.46v18.66H-.01Z"/><path fill="#FFF" fill-opacity=".85" d="M2.66 18.55h15.13c1.66 0 2.66-1.16 2.66-2.65 0-.46-.14-.94-.39-1.37L12.48 1.32C11.97.43 11.1-.02 10.2-.02c-.9 0-1.78.44-2.28 1.33L.34 14.51c-.27.43-.39.9-.39 1.36 0 1.49 1 2.64 2.66 2.64Zm0-1.54c-.69 0-1.1-.53-1.1-1.13 0-.19.03-.42.14-.625l7.56-13.2c.2-.37.57-.52.93-.52 .36 0 .72.15.92.51l7.56 13.2c.1.2.15.42.15.61 0 .59-.43 1.12-1.11 1.12Zm7.55-5.05c.46 0 .74-.28.75-.79l.13-5.15c0-.5-.39-.87-.9-.87 -.53 0-.9.36-.89.85l.12 5.15c0 .49.28.78.77.78Zm0 3.17c.56 0 1.05-.45 1.05-1.02 0-.58-.48-1.02-1.06-1.02 -.58 0-1.06.44-1.06 1.01 0 .55.48 1.01 1.05 1.01Z"/></svg>