<svg viewBox="-.005 0 19.931 19.931" xmlns="http://www.w3.org/2000/svg"><path opacity="0" d="M0 0h19.92v19.93H-.01Z"/><path fill="#FFF" fill-opacity=".85" d="M9.96 19.92c5.44 0 9.96-4.53 9.96-9.97 0-5.45-4.53-9.97-9.98-9.97C4.5-.02-.02 4.49-.02 9.94c0 5.43 4.52 9.96 9.96 9.96Zm0-1.67c-4.61 0-8.3-3.7-8.3-8.31s3.67-8.31 8.28-8.31c4.6 0 8.31 3.69 8.31 8.3 0 4.6-3.7 8.3-8.31 8.3Zm-1.71-2.84h3.97c.4 0 .71-.3.71-.7 0-.39-.32-.69-.72-.69h-1.22V9.04c0-.53-.27-.88-.77-.88H8.38c-.41 0-.72.3-.72.68 0 .4.31.69.71.69h1.04V14H8.19c-.41 0-.72.3-.72.68 0 .4.31.69.71.69Zm1.62-8.85c.71 0 1.26-.57 1.26-1.28 0-.72-.56-1.28-1.27-1.28s-1.27.56-1.27 1.27 .56 1.27 1.26 1.27Z"/></svg>