<svg viewBox="-1.91 0 25.127 25.127" xmlns="http://www.w3.org/2000/svg"><path opacity="0" d="M0 0h21.3v25.12H-.01Z"/><path fill="#FFF" fill-opacity=".85" d="M14.62 11.01c.33.22.79.14 1.05-.23 .74-1 1.19-2.46 1.19-3.95 0-1.5-.45-2.94-1.2-3.94 -.27-.39-.73-.45-1.06-.22 -.4.27-.46.75-.16 1.15 .57.78.88 1.86.88 2.99 0 1.13-.33 2.2-.89 2.99 -.3.41-.24.88.15 1.17Zm3.62 2.53c.36.24.81.16 1.06-.22 1.25-1.72 1.99-4.09 1.99-6.5 0-2.42-.74-4.8-2-6.5 -.26-.38-.71-.46-1.07-.22 -.37.24-.42.7-.14 1.1 1.06 1.51 1.67 3.52 1.67 5.6 0 2.08-.64 4.09-1.68 5.6 -.28.4-.23.85.13 1.1ZM6.22.57C2.74.57-.03 3.33-.03 6.79c0 2.6 1.56 4.91 4 5.83v9.63c0 .24.07.42.25.61l1.63 1.64c.16.16.49.21.7 0l3.09-3.1c.2-.22.19-.5 0-.71l-1.93-1.9 2.63-2.63c.18-.2.18-.48-.02-.7l-2.61-2.63c3.01-1.21 4.69-3.43 4.69-6.11C12.4 3.28 9.61.49 6.16.49Zm0 5.72c-.91 0-1.64-.74-1.64-1.64 0-.91.71-1.64 1.63-1.64 .89 0 1.63.72 1.63 1.63 0 .89-.74 1.63-1.64 1.63Z"/></svg>