<svg viewBox="0 -2.525 23.027 23.027" xmlns="http://www.w3.org/2000/svg"><path opacity="0" d="M0 0h23.02v17.97H-.01Z"/><path fill="#FFF" fill-opacity=".85" d="M4.88 5.56h1.18c.41 0 .75-.35.75-.76 0-.42-.36-.76-.76-.76H4.86c-.42 0-.75.34-.75.75s.33.75.74.75Zm0 3.25h1.18c.4 0 .75-.34.75-.75 0-.42-.35-.75-.76-.75H4.86c-.42 0-.75.33-.75.74s.32.74.74.74Zm3.91-3.39h9.47c.34 0 .6-.28.6-.62 0-.35-.27-.61-.61-.61H8.77c-.35 0-.61.26-.61.6 0 .34.26.61.6.61Zm0 3.26h9.47c.34 0 .6-.27.6-.62s-.27-.62-.61-.62H8.77c-.34 0-.61.26-.61.61 0 .34.26.61.6.61Zm-5.74 9.28h16.89c2.05 0 3.06-1.01 3.06-3.02V3c0-2.02-1.02-3.03-3.07-3.03H3.03C.98-.03-.04.98-.04 2.99v11.93c0 2.01 1.02 3.01 3.06 3.01Zm.01-1.58c-.98 0-1.52-.52-1.52-1.54V3.08c0-1.02.53-1.55 1.51-1.55H19.9c.96 0 1.51.52 1.51 1.54v11.75c0 1.01-.55 1.53-1.52 1.53Z"/></svg>