<svg viewBox="-2.007 0 20.244 20.244" xmlns="http://www.w3.org/2000/svg"><path opacity="0" d="M0 0h16.23v20.24H-.01Z"/><path fill="#FFF" fill-opacity=".85" d="M8.11 20.24c.15 0 .41-.06.65-.2 5.55-3.12 7.46-4.44 7.46-8V4.56c0-1.03-.44-1.35-1.27-1.7 -1.16-.48-4.88-1.82-6.03-2.22 -.27-.09-.55-.15-.83-.15 -.28 0-.56.07-.82.14 -1.16.33-4.89 1.74-6.04 2.21 -.83.34-1.27.67-1.27 1.69V12c0 3.56 1.91 4.87 7.46 7.99 .25.13.49.19.65.19Zm0-1.77c-.16 0-.32-.06-.61-.24 -4.52-2.74-5.96-3.54-5.96-6.56V4.86c0-.34.05-.46.33-.57C3.35 3.7 6.23 2.73 7.7 2.15c.15-.07.28-.09.39-.09 .1 0 .23.02.39.08 1.47.58 4.33 1.62 5.84 2.13 .26.09.32.23.32.56v6.8c0 3.01-1.45 3.8-5.96 6.55 -.29.17-.45.23-.61.23Zm-3.53-4.72c0 .73.32 1.07.99 1.07h5.05c.67 0 .99-.35.99-1.08V9.85c0-.69-.29-1.03-.86-1.07V7.62c0-1.8-1.08-3-2.67-3 -1.6 0-2.67 1.2-2.67 2.99v1.15c-.58.03-.86.38-.86 1.06Zm1.87-4.97V7.53c0-1.16.66-1.91 1.65-1.91 .98 0 1.65.75 1.65 1.9v1.25Z"/></svg>